<?xml version="1.0" encoding="utf-8"?>
<!-- Generator: Adobe Illustrator 26.0.0, SVG Export Plug-In . SVG Version: 6.00 Build 0)  -->
<svg version="1.1" id="图层_1" xmlns="http://www.w3.org/2000/svg" xmlns:xlink="http://www.w3.org/1999/xlink" x="0px" y="0px"
	 viewBox="0 0 146 39" style="enable-background:new 0 0 146 39;" xml:space="preserve">
<style type="text/css">
	.st0{fill:url(#SVGID_1_);}
	.st1{fill:url(#SVGID_00000157310536569970697860000003752037818143039622_);}
	.st2{fill:url(#SVGID_00000141424546542363822950000005014039808435800976_);}
	.st3{fill:url(#SVGID_00000090973619160623200040000006829009010747008699_);}
	.st4{fill:url(#SVGID_00000029764926448865299280000002873730728396128644_);}
	.st5{fill:url(#SVGID_00000158719869715524733760000011154367643704852383_);}
	.st6{fill:url(#SVGID_00000125590136717665709280000006885209496255588996_);}
	.st7{fill:url(#SVGID_00000012466861407726573060000017485966316534568126_);}
	.st8{fill:url(#SVGID_00000002372797223198549110000015450560758680798389_);}
	.st9{fill:url(#SVGID_00000145015971237987308650000015063399118388133795_);}
	.st10{fill:url(#SVGID_00000049191636368412261770000002333643013975223217_);}
	.st11{fill:url(#SVGID_00000031908845696920509290000015993856168452551040_);}
	.st12{fill:url(#SVGID_00000060025229782710570370000006450964804210678168_);}
	.st13{fill:url(#SVGID_00000021807117651952201040000007449323907560508069_);}
	.st14{fill:url(#SVGID_00000123404159212995633850000011711593712248744349_);}
	.st15{fill:url(#SVGID_00000095310705670649538620000003956711500096572047_);}
	.st16{fill:url(#SVGID_00000029763271407082399470000000416134502665012883_);}
</style>
<linearGradient id="SVGID_1_" gradientUnits="userSpaceOnUse" x1="-2.2815" y1="42.1373" x2="11.3285" y2="26.7373" gradientTransform="matrix(1 0 0 -1 0 39)">
	<stop  offset="0" style="stop-color:#CCE0F4"/>
	<stop  offset="2.000000e-02" style="stop-color:#C3DCF2"/>
	<stop  offset="5.000000e-02" style="stop-color:#A9D2EE"/>
	<stop  offset="9.000000e-02" style="stop-color:#80C2E7"/>
	<stop  offset="0.13" style="stop-color:#47ACDE"/>
	<stop  offset="0.16" style="stop-color:#1E9CD7"/>
	<stop  offset="0.46" style="stop-color:#0075BE"/>
	<stop  offset="0.92" style="stop-color:#005B97"/>
</linearGradient>
<path class="st0" d="M1.8,7h3.8c0.7,0,1.3-0.6,1.3-1.3V1.3C6.9,0.6,6.3,0,5.6,0H1.8c-1,0-1.9,0.8-1.9,1.9v3.3C-0.1,6.2,0.8,7,1.8,7
	C1.8,7,1.8,7,1.8,7z"/>
<linearGradient id="SVGID_00000175317103507333314410000000828567870524202919_" gradientUnits="userSpaceOnUse" x1="22.3531" y1="-13.88" x2="23.3731" y2="44.24" gradientTransform="matrix(1 0 0 -1 0 39)">
	<stop  offset="0" style="stop-color:#CCE0F4"/>
	<stop  offset="6.000000e-02" style="stop-color:#C3DCF2"/>
	<stop  offset="0.17" style="stop-color:#A9D2EE"/>
	<stop  offset="0.31" style="stop-color:#80C2E7"/>
	<stop  offset="0.46" style="stop-color:#47ACDE"/>
	<stop  offset="0.57" style="stop-color:#1E9CD7"/>
	<stop  offset="0.87" style="stop-color:#0075BE"/>
	<stop  offset="0.99" style="stop-color:#005B97"/>
</linearGradient>
<path style="fill:url(#SVGID_00000175317103507333314410000000828567870524202919_);" d="M33.4,0H12.3c-0.7,0-1.3,0.6-1.3,1.3v4.3
	c0,0.7,0.6,1.3,1.3,1.3h14.7v10h-11v5c0,1.1,0.9,2,2,2h9v15h6.4c0.9,0,1.6-0.7,1.6-1.6c0,0,0,0,0,0V1.6C34.9,0.7,34.2,0,33.4,0z"/>
<linearGradient id="SVGID_00000109751421081026353420000004999650609317787777_" gradientUnits="userSpaceOnUse" x1="8.9475" y1="-13.6499" x2="9.9675" y2="44.4735" gradientTransform="matrix(1 0 0 -1 0 39)">
	<stop  offset="0" style="stop-color:#CCE0F4"/>
	<stop  offset="0" style="stop-color:#C9DFF4"/>
	<stop  offset="4.000000e-02" style="stop-color:#A1CFED"/>
	<stop  offset="7.000000e-02" style="stop-color:#7EC2E7"/>
	<stop  offset="0.11" style="stop-color:#60B6E2"/>
	<stop  offset="0.15" style="stop-color:#48ACDE"/>
	<stop  offset="0.2" style="stop-color:#35A5DB"/>
	<stop  offset="0.26" style="stop-color:#28A0D9"/>
	<stop  offset="0.33" style="stop-color:#209DD7"/>
	<stop  offset="0.48" style="stop-color:#1E9CD7"/>
	<stop  offset="0.87" style="stop-color:#0075BE"/>
	<stop  offset="0.99" style="stop-color:#005B97"/>
</linearGradient>
<path style="fill:url(#SVGID_00000109751421081026353420000004999650609317787777_);" d="M17.9,32h-11V12c0-1.1-0.9-2-2-2h-5v28
	c0,0.6,0.4,1,1,1h18v-6C18.9,32.4,18.5,32,17.9,32z"/>
<linearGradient id="SVGID_00000165199566554001256930000002136441753630978194_" gradientUnits="userSpaceOnUse" x1="54.5622" y1="-14.4" x2="55.5822" y2="43.73" gradientTransform="matrix(1 0 0 -1 0 39)">
	<stop  offset="0" style="stop-color:#CCE0F4"/>
	<stop  offset="6.000000e-02" style="stop-color:#C3DCF2"/>
	<stop  offset="0.17" style="stop-color:#A9D2EE"/>
	<stop  offset="0.31" style="stop-color:#80C2E7"/>
	<stop  offset="0.46" style="stop-color:#47ACDE"/>
	<stop  offset="0.57" style="stop-color:#1E9CD7"/>
	<stop  offset="0.87" style="stop-color:#0075BE"/>
	<stop  offset="0.99" style="stop-color:#005B97"/>
</linearGradient>
<path style="fill:url(#SVGID_00000165199566554001256930000002136441753630978194_);" d="M41.5,0c-0.9,0-1.6,0.7-1.6,1.6V7h29
	c1.1,0,2-0.9,2-2V0H41.5z"/>
<linearGradient id="SVGID_00000164493188112194991000000001773365796704647811_" gradientUnits="userSpaceOnUse" x1="39.7794" y1="19.9269" x2="48.4594" y2="35.5069" gradientTransform="matrix(1 0 0 -1 0 39)">
	<stop  offset="0" style="stop-color:#CCE0F4"/>
	<stop  offset="1.000000e-02" style="stop-color:#C3DBF2"/>
	<stop  offset="2.000000e-02" style="stop-color:#A9CEEB"/>
	<stop  offset="3.000000e-02" style="stop-color:#80B8E0"/>
	<stop  offset="5.000000e-02" style="stop-color:#469AD1"/>
	<stop  offset="6.000000e-02" style="stop-color:#0075BE"/>
	<stop  offset="0.57" style="stop-color:#1E9CD7"/>
	<stop  offset="0.99" style="stop-color:#005B97"/>
</linearGradient>
<path style="fill:url(#SVGID_00000164493188112194991000000001773365796704647811_);" d="M41.3,9h4.4c0.7,0,1.3,0.6,1.3,1.3v4.4
	c0,0.7-0.6,1.3-1.3,1.3h-4.4c-0.7,0-1.3-0.6-1.3-1.3v-4.4C39.9,9.6,40.5,9,41.3,9z"/>
<linearGradient id="SVGID_00000087399731908416483410000014033601952984160131_" gradientUnits="userSpaceOnUse" x1="55.0044" y1="-14.4101" x2="56.0244" y2="43.7199" gradientTransform="matrix(1 0 0 -1 0 39)">
	<stop  offset="0" style="stop-color:#CCE0F4"/>
	<stop  offset="6.000000e-02" style="stop-color:#C3DCF2"/>
	<stop  offset="0.17" style="stop-color:#A9D2EE"/>
	<stop  offset="0.31" style="stop-color:#80C2E7"/>
	<stop  offset="0.46" style="stop-color:#47ACDE"/>
	<stop  offset="0.57" style="stop-color:#1E9CD7"/>
	<stop  offset="0.87" style="stop-color:#0075BE"/>
	<stop  offset="0.99" style="stop-color:#005B97"/>
</linearGradient>
<path style="fill:url(#SVGID_00000087399731908416483410000014033601952984160131_);" d="M68.3,18H39.9v6c0,0.6,0.4,1,1,1h23v14h7
	V20.6C70.9,19.2,69.8,18,68.3,18L68.3,18z"/>
<linearGradient id="SVGID_00000041271574584439890830000018075545726900213391_" gradientUnits="userSpaceOnUse" x1="49.0791" y1="-14.2991" x2="50.0991" y2="43.8209" gradientTransform="matrix(1 0 0 -1 0 39)">
	<stop  offset="0" style="stop-color:#CCE0F4"/>
	<stop  offset="6.000000e-02" style="stop-color:#C3DCF2"/>
	<stop  offset="0.17" style="stop-color:#A9D2EE"/>
	<stop  offset="0.31" style="stop-color:#80C2E7"/>
	<stop  offset="0.46" style="stop-color:#47ACDE"/>
	<stop  offset="0.57" style="stop-color:#1E9CD7"/>
	<stop  offset="0.87" style="stop-color:#0075BE"/>
	<stop  offset="0.99" style="stop-color:#005B97"/>
</linearGradient>
<path style="fill:url(#SVGID_00000041271574584439890830000018075545726900213391_);" d="M56.9,32h-17v6c0,0.6,0.4,1,1,1h18v-5
	C58.9,32.9,58,32,56.9,32z"/>
<linearGradient id="SVGID_00000113335872236364716430000016459326282938180782_" gradientUnits="userSpaceOnUse" x1="85.5486" y1="-14.8899" x2="86.5686" y2="43.2401" gradientTransform="matrix(1 0 0 -1 0 39)">
	<stop  offset="0" style="stop-color:#CCE0F4"/>
	<stop  offset="6.000000e-02" style="stop-color:#C3DCF2"/>
	<stop  offset="0.17" style="stop-color:#A9D2EE"/>
	<stop  offset="0.31" style="stop-color:#80C2E7"/>
	<stop  offset="0.46" style="stop-color:#47ACDE"/>
	<stop  offset="0.57" style="stop-color:#1E9CD7"/>
	<stop  offset="0.87" style="stop-color:#0075BE"/>
	<stop  offset="0.99" style="stop-color:#005B97"/>
</linearGradient>
<path style="fill:url(#SVGID_00000113335872236364716430000016459326282938180782_);" d="M75.9,6c0,0.6,0.4,1,1,1h19
	c0.6,0,1-0.4,1-1V0h-21V6z"/>
<linearGradient id="SVGID_00000007404235626477985630000008538856304251624601_" gradientUnits="userSpaceOnUse" x1="113.5802" y1="43.6216" x2="98.2502" y2="31.3416" gradientTransform="matrix(1 0 0 -1 0 39)">
	<stop  offset="0" style="stop-color:#CCE0F4"/>
	<stop  offset="0" style="stop-color:#C3DBF2"/>
	<stop  offset="0" style="stop-color:#A9CEEB"/>
	<stop  offset="1.000000e-02" style="stop-color:#80B8E0"/>
	<stop  offset="1.000000e-02" style="stop-color:#469AD1"/>
	<stop  offset="1.000000e-02" style="stop-color:#0075BE"/>
	<stop  offset="0.57" style="stop-color:#1E9CD7"/>
	<stop  offset="0.87" style="stop-color:#005B97"/>
</linearGradient>
<path style="fill:url(#SVGID_00000007404235626477985630000008538856304251624601_);" d="M105.9,0h-6v6c0,0.6,0.4,1,1,1h6V1
	C106.9,0.4,106.5,0,105.9,0z"/>
<linearGradient id="SVGID_00000065050804607648047770000005317559177579140235_" gradientUnits="userSpaceOnUse" x1="90.9416" y1="-14.98" x2="91.9616" y2="43.14" gradientTransform="matrix(1 0 0 -1 0 39)">
	<stop  offset="0" style="stop-color:#CCE0F4"/>
	<stop  offset="6.000000e-02" style="stop-color:#C3DCF2"/>
	<stop  offset="0.17" style="stop-color:#A9D2EE"/>
	<stop  offset="0.31" style="stop-color:#80C2E7"/>
	<stop  offset="0.46" style="stop-color:#47ACDE"/>
	<stop  offset="0.57" style="stop-color:#1E9CD7"/>
	<stop  offset="0.87" style="stop-color:#0075BE"/>
	<stop  offset="0.99" style="stop-color:#005B97"/>
</linearGradient>
<path style="fill:url(#SVGID_00000065050804607648047770000005317559177579140235_);" d="M93.9,11h-5c-0.6,0-1,0.4-1,1v27h7V12
	C94.9,11.4,94.5,11,93.9,11z"/>
<linearGradient id="SVGID_00000114054472963185571980000012035617897456766883_" gradientUnits="userSpaceOnUse" x1="103.0693" y1="-15.2" x2="104.0893" y2="42.93" gradientTransform="matrix(1 0 0 -1 0 39)">
	<stop  offset="0" style="stop-color:#CCE0F4"/>
	<stop  offset="6.000000e-02" style="stop-color:#C3DCF2"/>
	<stop  offset="0.17" style="stop-color:#A9D2EE"/>
	<stop  offset="0.31" style="stop-color:#80C2E7"/>
	<stop  offset="0.46" style="stop-color:#47ACDE"/>
	<stop  offset="0.57" style="stop-color:#1E9CD7"/>
	<stop  offset="0.87" style="stop-color:#0075BE"/>
	<stop  offset="0.99" style="stop-color:#005B97"/>
</linearGradient>
<path style="fill:url(#SVGID_00000114054472963185571980000012035617897456766883_);" d="M99.9,27v12h7V25h-5
	C100.8,25,99.9,25.9,99.9,27z"/>
<linearGradient id="SVGID_00000179644232048294354220000004714812941351581090_" gradientUnits="userSpaceOnUse" x1="78.9892" y1="-14.77" x2="80.0092" y2="43.35" gradientTransform="matrix(1 0 0 -1 0 39)">
	<stop  offset="0" style="stop-color:#CCE0F4"/>
	<stop  offset="6.000000e-02" style="stop-color:#C3DCF2"/>
	<stop  offset="0.17" style="stop-color:#A9D2EE"/>
	<stop  offset="0.31" style="stop-color:#80C2E7"/>
	<stop  offset="0.46" style="stop-color:#47ACDE"/>
	<stop  offset="0.57" style="stop-color:#1E9CD7"/>
	<stop  offset="0.87" style="stop-color:#0075BE"/>
	<stop  offset="0.99" style="stop-color:#005B97"/>
</linearGradient>
<path style="fill:url(#SVGID_00000179644232048294354220000004714812941351581090_);" d="M80.9,17h-5v22h7V19
	C82.9,17.9,82,17,80.9,17z"/>
<linearGradient id="SVGID_00000080180723381593730400000016195951510289629851_" gradientUnits="userSpaceOnUse" x1="114.9089" y1="-15.35" x2="115.9289" y2="42.77" gradientTransform="matrix(1 0 0 -1 0 39)">
	<stop  offset="0" style="stop-color:#CCE0F4"/>
	<stop  offset="6.000000e-02" style="stop-color:#C3DCF2"/>
	<stop  offset="0.17" style="stop-color:#A9D2EE"/>
	<stop  offset="0.31" style="stop-color:#80C2E7"/>
	<stop  offset="0.46" style="stop-color:#47ACDE"/>
	<stop  offset="0.57" style="stop-color:#1E9CD7"/>
	<stop  offset="0.87" style="stop-color:#0075BE"/>
	<stop  offset="0.99" style="stop-color:#005B97"/>
</linearGradient>
<path style="fill:url(#SVGID_00000080180723381593730400000016195951510289629851_);" d="M117.9,10h-6v29h6c0.6,0,1-0.4,1-1V11
	C118.9,10.4,118.5,10,117.9,10z"/>
<linearGradient id="SVGID_00000047751504319654013000000002531993240718726795_" gradientUnits="userSpaceOnUse" x1="138.1035" y1="-15.76" x2="139.1235" y2="42.37" gradientTransform="matrix(1 0 0 -1 0 39)">
	<stop  offset="0" style="stop-color:#CCE0F4"/>
	<stop  offset="6.000000e-02" style="stop-color:#C3DCF2"/>
	<stop  offset="0.17" style="stop-color:#A9D2EE"/>
	<stop  offset="0.31" style="stop-color:#80C2E7"/>
	<stop  offset="0.46" style="stop-color:#47ACDE"/>
	<stop  offset="0.57" style="stop-color:#1E9CD7"/>
	<stop  offset="0.87" style="stop-color:#0075BE"/>
	<stop  offset="0.99" style="stop-color:#005B97"/>
</linearGradient>
<path style="fill:url(#SVGID_00000047751504319654013000000002531993240718726795_);" d="M144.9,0h-6v32h-8v6c0,0.6,0.4,1,1,1h14V1
	C145.9,0.4,145.5,0,144.9,0z"/>
<linearGradient id="SVGID_00000044881333451930935890000004496161864848464261_" gradientUnits="userSpaceOnUse" x1="122.0382" y1="-15.4799" x2="123.0682" y2="42.6501" gradientTransform="matrix(1 0 0 -1 0 39)">
	<stop  offset="0" style="stop-color:#CCE0F4"/>
	<stop  offset="6.000000e-02" style="stop-color:#C3DCF2"/>
	<stop  offset="0.17" style="stop-color:#A9D2EE"/>
	<stop  offset="0.31" style="stop-color:#80C2E7"/>
	<stop  offset="0.46" style="stop-color:#47ACDE"/>
	<stop  offset="0.57" style="stop-color:#1E9CD7"/>
	<stop  offset="0.87" style="stop-color:#0075BE"/>
	<stop  offset="0.99" style="stop-color:#005B97"/>
</linearGradient>
<path style="fill:url(#SVGID_00000044881333451930935890000004496161864848464261_);" d="M133.9,6V0h-21c-0.6,0-1,0.4-1,1v6h21
	C133.5,7,133.9,6.6,133.9,6z"/>
<linearGradient id="SVGID_00000078025904319855124730000017280054162485696651_" gradientUnits="userSpaceOnUse" x1="137.6116" y1="13.7166" x2="87.6316" y2="12.3066" gradientTransform="matrix(1 0 0 -1 0 39)">
	<stop  offset="0" style="stop-color:#CCE0F4"/>
	<stop  offset="1.000000e-02" style="stop-color:#C3DCF2"/>
	<stop  offset="2.000000e-02" style="stop-color:#A9D2EE"/>
	<stop  offset="4.000000e-02" style="stop-color:#80C2E7"/>
	<stop  offset="6.000000e-02" style="stop-color:#47ACDE"/>
	<stop  offset="7.000000e-02" style="stop-color:#1E9CD7"/>
	<stop  offset="0.34" style="stop-color:#0075BE"/>
	<stop  offset="0.99" style="stop-color:#005B97"/>
</linearGradient>
<path style="fill:url(#SVGID_00000078025904319855124730000017280054162485696651_);" d="M134.9,28v-5c0-0.6-0.4-1-1-1h-8
	c-1.1,0-2,0.9-2,2v3c0,1.1,0.9,2,2,2h8C134.5,29,134.9,28.6,134.9,28z"/>
<linearGradient id="SVGID_00000018940098650364735360000008039413654347217569_" gradientUnits="userSpaceOnUse" x1="121.0414" y1="24.3119" x2="141.9714" y2="24.8819" gradientTransform="matrix(1 0 0 -1 0 39)">
	<stop  offset="0" style="stop-color:#CCE0F4"/>
	<stop  offset="0" style="stop-color:#C3DBF2"/>
	<stop  offset="1.000000e-02" style="stop-color:#A9CEEB"/>
	<stop  offset="1.000000e-02" style="stop-color:#80B8E0"/>
	<stop  offset="2.000000e-02" style="stop-color:#469AD1"/>
	<stop  offset="2.000000e-02" style="stop-color:#0075BE"/>
	<stop  offset="0.57" style="stop-color:#1E9CD7"/>
	<stop  offset="0.96" style="stop-color:#005B97"/>
</linearGradient>
<path style="fill:url(#SVGID_00000018940098650364735360000008039413654347217569_);" d="M131.9,18c1.1,0,2-0.9,2-2v-3
	c0-1.1-0.9-2-2-2h-8c-0.6,0-1,0.4-1,1v5c0,0.6,0.4,1,1,1H131.9z"/>
</svg>
