<?xml version="1.0" encoding="utf-8"?>
<!-- Generator: Adobe Illustrator 26.0.0, SVG Export Plug-In . SVG Version: 6.00 Build 0)  -->
<svg version="1.1" id="icon" xmlns="http://www.w3.org/2000/svg" xmlns:xlink="http://www.w3.org/1999/xlink" x="0px" y="0px"
	 viewBox="0 0 519 518.7" style="enable-background:new 0 0 519 518.7;" xml:space="preserve">
<style type="text/css">
	.st0{fill:#010101;}
	.st1{opacity:0.45;fill:#FFD300;}
	.st2{opacity:0.45;fill:#0087BD;}
	.st3{fill:#0087BD;}
	.st4{fill:none;stroke:#000000;stroke-width:4;stroke-miterlimit:10;}
	.st5{fill:none;}
	.st6{fill:#FFFFFF;}
	.st7{fill:#FFD300;}
	.st8{fill:#FFCC4D;}
	.st9{fill:#664500;}
	.st10{fill:#5DADEC;}
</style>
<g>
	<g id="XMLID_00000137821887064603943500000007276246359045419958_">
		<g>
			<path class="st0" d="M519,476.9v41.8h-41.8l15.9-15.9l-61.6-61.6l-77.4,77.4H164.9l-77.4-77.4l-61.6,61.6l15.9,15.9H0v-41.8
				l15.9,16.5l61.6-61.6L0,354.5V165.9l77.8-77.8L15.9,26.2L0,42.1V0.3l41.8,0.3L25.9,16.5l61.6,61.6l77.8-77.8h187.9l77.8,77.8
				l61.6-62.2L476.6,0h41.8v41.8l-15.9-15.9l-61.9,61.9l77.8,77.8v188.6L441,431.6l62.2,61.2L519,476.9z M504.5,348.3V171.4
				l-73.5-73.5L269.2,259.5l162,162L504.5,348.3z M348,504.8l73.2-73.2l-162-162l-162,162l73.2,73.2H348z M259.2,249.8l161.7-162
				l-73.5-73.6H171.1L97.5,88.1L259.2,249.8z M87.5,421.5l162-162L87.5,97.9l-73.5,73.5v176.9L87.5,421.5z"/>
		</g>
		<g>
		</g>
	</g>
</g>
<polygon class="st1" points="171.1,14.3 347.3,14.3 420.9,87.8 259.2,249.8 97.5,88.1 "/>
<polygon class="st2" points="87.5,97.8 249.5,259.5 87.5,421.5 13.9,348.3 13.9,171.4 "/>
<polygon class="st2" points="269.2,259.5 430.9,97.8 504.5,171.4 504.5,348.3 431.2,421.5 "/>
<g>
	<g>
		<g id="XMLID_00000032634022118079969050000000997995806833411483_">
			<g>
				<circle class="st3" cx="407.9" cy="259.4" r="81.2"/>
			</g>
			<g>
				<circle class="st4" cx="407.9" cy="259.4" r="81.2"/>
			</g>
		</g>
		
			<ellipse transform="matrix(0.7071 -0.7071 0.7071 0.7071 -63.9669 364.398)" class="st5" cx="407.9" cy="259.4" rx="26.2" ry="12.3"/>
		<path class="st6" d="M394.9,246.4c8.4-8.4,19.4-12.1,30.3-11.6c-1.5-5.4-4.4-10.5-8.6-14.8c-13.3-13.3-34.7-13.3-48.1,0
			c-13.3,13.3-13.3,34.7,0,48.1c4.3,4.3,9.4,7.1,14.8,8.6C382.8,265.8,386.6,254.8,394.9,246.4z"/>
		<path class="st6" d="M420.8,272.3c-8.4,8.4-19.4,12.1-30.3,11.6c1.5,5.4,4.4,10.5,8.6,14.8c13.3,13.3,34.7,13.3,48.1,0
			s13.3-34.7,0-48.1c-4.3-4.3-9.4-7.1-14.8-8.6C433,252.9,429,264,420.8,272.3z"/>
		<path class="st0" d="M451.4,246.4c-5.7-5.7-12.5-9.3-19.9-10.8c-1.5-7.3-5.1-14.2-10.8-19.9c-15.6-15.6-40.9-15.6-56.4,0
			s-15.6,40.9,0,56.4c5.7,5.7,12.6,9.3,19.8,10.8c1.5,7.3,5.1,14.2,10.8,19.9c15.6,15.6,40.9,15.6,56.4,0S467,262.1,451.4,246.4z
			 M416.6,268.2c-7.5,7.5-17.5,10.7-27.2,9.8c-0.9-9.7,2.3-19.8,9.8-27.2c7.5-7.4,17.5-10.7,27.2-9.8
			C427.3,250.6,424.1,260.7,416.6,268.2z M368.5,268.2c-13.3-13.3-13.3-34.7,0-48.1s34.7-13.3,48.1,0c4.3,4.3,7.1,9.4,8.6,14.8
			c-10.9-0.5-22,3.3-30.3,11.6c-8.4,8.4-12.1,19.4-11.6,30.3C377.9,275.3,372.8,272.3,368.5,268.2z M447.2,298.8
			c-13.3,13.3-34.7,13.3-48.1,0c-4.3-4.3-7.1-9.4-8.6-14.8c11,0.5,22.1-3.3,30.3-11.6c8.3-8.3,12.2-19.4,11.6-30.3
			c5.4,1.5,10.5,4.4,14.8,8.6C460.4,264,460.4,285.5,447.2,298.8z"/>
	</g>
</g>
<g>
	<g id="XMLID_00000017494402951779337180000015608393934620944312_">
		<g>
			<circle class="st7" cx="259.5" cy="111.2" r="81.2"/>
		</g>
		<g>
			<circle class="st4" cx="259.5" cy="111.2" r="81.2"/>
		</g>
	</g>
	<g>
		<path class="st5" d="M270.8,77.6c0-1.4-1.2-2.7-2.7-2.7h-17.4c-1.4,0-2.7,1.2-2.7,2.7V97h22.7L270.8,77.6L270.8,77.6z"/>
		<path class="st6" d="M289.4,103.3l-2.5-0.4v-31c0-7.2-5.9-13.1-13.1-13.1H245c-7.2,0-13.1,5.9-13.1,13.1v31l-2.5,0.4
			c-7.2,1.3-12.4,7.5-12.4,14.8v30.4c0,8.3,6.8,14.9,15,14.9h55c8.3,0,14.9-6.8,14.9-14.9v-30.4C302,110.6,296.8,104.3,289.4,103.3z
			 M242.1,77.6c0-4.8,3.9-8.6,8.6-8.6H268c4.8,0,8.6,3.9,8.6,8.6v25.3h-34.5V77.6z M259.5,154L259.5,154h-0.2
			c-11.5,0-20.9-9.4-20.9-20.9s9.4-20.9,20.9-20.9h0.1h0.1c11.5,0,20.9,9.4,20.9,20.9C280.5,144.7,271,154,259.5,154z"/>
		<ellipse class="st6" cx="259.4" cy="133.1" rx="14.4" ry="14.6"/>
		<path class="st0" d="M292.8,97.9V71.9c0-10.5-8.6-19.1-19.1-19.1H245c-10.5,0-19.1,8.5-19.1,19.1V98c-8.7,2.6-14.9,10.7-14.9,20.1
			v30.4c0,11.6,9.4,21,21,21h55c11.6,0,21-9.4,21-21v-30.4C308,108.5,301.7,100.4,292.8,97.9z M302,148.5c0,8.3-6.8,14.9-14.9,14.9
			H232c-8.3,0-14.9-6.8-14.9-14.9v-30.3c0-7.4,5.3-13.6,12.4-14.8l2.5-0.4v-31c0-7.2,5.9-13.1,13.1-13.1h28.7
			c7.2,0,13.1,5.9,13.1,13.1v30.9l2.5,0.4c7.3,1.2,12.6,7.3,12.6,14.8L302,148.5L302,148.5z"/>
		<path class="st0" d="M276.7,77.6c0-4.8-3.9-8.6-8.5-8.6h-17.5c-4.8,0-8.6,3.9-8.6,8.6v25.3h34.6L276.7,77.6L276.7,77.6z
			 M248.1,77.6c0-1.4,1.2-2.7,2.7-2.7h17.4c1.4,0,2.7,1.2,2.7,2.7V97h-22.7L248.1,77.6L248.1,77.6z"/>
		<path class="st6" d="M259.5,118.6L259.5,118.6c7.9,0.1,14.3,6.5,14.3,14.6c0,8.1-6.5,14.5-14.4,14.6h0.1c8,0,14.6-6.5,14.6-14.6
			C274.1,125,267.6,118.6,259.5,118.6z"/>
		<path class="st6" d="M238.6,133.1c0-11.5,9.3-20.8,20.8-20.9h-0.1c-11.5,0-20.9,9.4-20.9,20.9c0,11.5,9.4,20.9,20.9,20.9h0.1
			C248,153.9,238.6,144.6,238.6,133.1z"/>
		<path class="st0" d="M259.5,112.2L259.5,112.2c-11.6,0.1-21,9.4-21,21s9.3,20.8,20.8,20.9h0.1c11.5,0,20.9-9.4,20.9-20.9
			S271,112.2,259.5,112.2z M274.1,133.1c0,8.1-6.6,14.6-14.6,14.6h-0.1c-7.9-0.1-14.4-6.5-14.4-14.6c0-8.1,6.4-14.5,14.4-14.6h0.1
			C267.6,118.6,274.1,124.9,274.1,133.1z"/>
	</g>
</g>
<g>
	<g id="XMLID_00000003070678233127937080000013377235142079938723_">
		<g>
			<circle class="st3" cx="110.9" cy="259.4" r="80.9"/>
		</g>
		<g>
			<circle class="st4" cx="110.9" cy="259.4" r="80.9"/>
		</g>
	</g>
	<g>
		<path class="st6" d="M105,266.5c0,0-2.4-2.6-2.8-6.5c-0.5-5.2,4.9-11.4,13.5-14.8c-0.5,1.9-0.9,4.6,0.4,7.4
			c1.1,2.5,2.6,2.8,3.7,5.5c0.4,1,1.7,4.3,0,7.4c-1.6,2.9-4.9,3.6-5.5,3.7v6.7c7.8,0.1,19.5-0.6,32.3-6.7
			c6.9-3.3,12.2-7.1,15.8-10.1c-3.3-2.9-8.2-6.7-14.8-10.1c-3.3-1.7-18.4-9.3-38.7-8.4c-24.5,1.2-41.3,13.7-47.1,18.4
			c8,5.5,24.9,15.5,48,16.6v-6.5C108.5,268.9,106.6,268.2,105,266.5z"/>
		<path class="st0" d="M147.4,242.4c-19.4-9.3-36.9-8-44.3-7.4c-24.6,2.2-41.9,13.8-49.3,19.4c-0.3,0.2-2.3,1.8-2.3,4.6
			c0,2.9,2.1,4.5,2.3,4.6c10.2,8.1,19.8,12.4,26.3,14.8c6.3,2.2,41.6,14.2,72.9-4.6c8.3-4.9,14-10.7,17.5-14.8
			C165.9,254.3,158.2,247.7,147.4,242.4z M146.5,269.2c-12.7,6-24.5,6.8-32.3,6.7v-6.7c0.6-0.1,3.9-0.8,5.5-3.7
			c1.7-3.1,0.4-6.4,0-7.4c-1.2-2.8-2.6-3-3.7-5.5c-1.2-2.8-0.8-5.6-0.4-7.4c-8.5,3.3-13.9,9.4-13.3,14.8c0.4,3.9,2.8,6.5,2.8,6.5
			c1.7,1.8,3.6,2.5,4.6,2.8v6.5c-23-1.2-40-11.1-48-16.6c5.8-4.8,22.5-17.4,47.1-18.5c20.4-0.9,35.5,6.6,38.7,8.4
			c6.6,3.4,11.4,7.2,14.8,10.1C158.7,262,153.4,265.8,146.5,269.2z"/>
	</g>
</g>
<g>
	<path class="st8" d="M334.5,406.7c0,39.8-32.2,72-72,72c-39.8,0-72-32.2-72-72c0-39.8,32.2-72,72-72
		C302.3,334.7,334.5,367,334.5,406.7"/>
	<path class="st9" d="M304.3,405.9c-0.2-0.5-6-13.2-17.8-13.2c-11.8,0-17.6,12.6-17.8,13.2c-0.4,0.8-0.1,1.8,0.6,2.4
		c0.7,0.6,1.7,0.6,2.4,0.1c0,0,5-3.6,14.8-3.6c9.7,0,14.7,3.5,14.8,3.6c0.4,0.3,0.8,0.4,1.2,0.4c0.4,0,0.9-0.1,1.2-0.4
		C304.5,407.7,304.7,406.7,304.3,405.9z M256.3,405.9c-0.2-0.5-6-13.2-17.8-13.2c-11.8,0-17.6,12.6-17.8,13.2
		c-0.4,0.8-0.1,1.8,0.6,2.4c0.7,0.6,1.7,0.6,2.4,0.1c0.1,0,5-3.6,14.8-3.6c9.7,0,14.7,3.5,14.8,3.6c0.4,0.3,0.8,0.4,1.2,0.4
		c0.4,0,0.9-0.1,1.2-0.4C256.5,407.7,256.7,406.7,256.3,405.9z M314.5,398.7c-1.6,0-3.1-1-3.7-2.5c-7.1-17.8-24.9-21.5-25.1-21.6
		c-2.2-0.4-3.6-2.5-3.1-4.7c0.4-2.2,2.5-3.6,4.7-3.1c0.9,0.2,22.2,4.7,30.9,26.4c0.8,2.1-0.2,4.4-2.2,5.2
		C315.5,398.6,315,398.7,314.5,398.7z M210.5,398.7c-0.5,0-1-0.1-1.5-0.3c-2.1-0.8-3-3.1-2.2-5.2c8.7-21.8,30-26.3,30.9-26.4
		c2.2-0.4,4.3,1,4.7,3.1c0.4,2.2-1,4.3-3.1,4.7c-0.7,0.2-18,3.9-25.1,21.6C213.6,397.8,212.1,398.7,210.5,398.7z M262.5,422.7
		c-14.5,0-24.1-1.7-36-4c-2.7-0.5-8,0-8,8c0,16,18.4,36,44,36c25.6,0,44-20,44-36c0-8-5.3-8.5-8-8C286.6,421,277,422.7,262.5,422.7z
		"/>
	<path class="st6" d="M226.5,426.7c0,0,12,4,36,4s36-4,36-4s-8,16-36,16S226.5,426.7,226.5,426.7z"/>
	<path class="st10" d="M233.9,447.6c-2.7,10.7-13.6,17.2-24.3,14.5c-10.7-2.7-17.2-13.6-14.5-24.3s25.3-34.8,29.2-33.8
		C228.2,404.9,236.6,436.9,233.9,447.6z M291.1,447.6c2.7,10.7,13.6,17.2,24.3,14.5c10.7-2.7,17.2-13.6,14.5-24.3
		s-25.4-34.8-29.2-33.8C296.7,404.9,288.3,436.9,291.1,447.6z"/>
</g>
</svg>
