<?xml version="1.0" encoding="utf-8"?>
<!-- Generator: Adobe Illustrator 26.0.0, SVG Export Plug-In . SVG Version: 6.00 Build 0)  -->
<svg version="1.1" id="icon" xmlns="http://www.w3.org/2000/svg" xmlns:xlink="http://www.w3.org/1999/xlink" x="0px" y="0px"
	 viewBox="0 0 200 200" style="enable-background:new 0 0 200 200;" xml:space="preserve">
<style type="text/css">
	.st0{fill:#FFD300;}
	.st1{fill:none;stroke:#000000;stroke-width:4;stroke-miterlimit:10;}
	.st2{fill:none;}
	.st3{fill:#FFFFFF;}
	.st4{fill:#010101;}
</style>
<g id="XMLID_00000041296187273166664900000002720313050967175340_">
	<g>
		<circle class="st0" cx="100" cy="100" r="90.2"/>
	</g>
	<g>
		<circle class="st1" cx="100" cy="100" r="90.2"/>
	</g>
</g>
<g>
	<path class="st2" d="M112.5,62.7c0-1.6-1.3-3-3-3H90.2c-1.6,0-3,1.3-3,3v21.5h25.2V62.7z"/>
	<path class="st3" d="M133.2,91.2l-2.8-0.4V56.4c0-8-6.6-14.6-14.6-14.6H83.9c-8,0-14.6,6.6-14.6,14.6v34.4l-2.8,0.4
		c-8,1.4-13.8,8.3-13.8,16.5v33.8c0,9.2,7.5,16.6,16.7,16.6h61.1c9.2,0,16.6-7.5,16.6-16.6v-33.8C147.2,99.4,141.4,92.4,133.2,91.2z
		 M80.6,62.7c0-5.3,4.3-9.5,9.5-9.5h19.3c5.3,0,9.5,4.3,9.5,9.5v28.1H80.6V62.7z M100,147.6L100,147.6h-0.2
		c-12.8,0-23.2-10.4-23.2-23.2s10.4-23.2,23.2-23.2h0.1h0.1c12.8,0,23.2,10.4,23.2,23.2C123.3,137.2,112.8,147.6,100,147.6z"/>
	<ellipse class="st3" cx="99.9" cy="124.4" rx="16" ry="16.2"/>
	<path class="st4" d="M137,85.2V56.4c0-11.7-9.5-21.2-21.2-21.2H83.9c-11.7,0-21.2,9.5-21.2,21.2v29c-9.7,2.9-16.6,11.9-16.6,22.3
		v33.8c0,12.9,10.4,23.3,23.3,23.3h61.1c12.9,0,23.3-10.4,23.3-23.3v-33.8C153.9,97,146.9,88,137,85.2z M147.2,141.5
		c0,9.2-7.5,16.6-16.6,16.6H69.4c-9.2,0-16.6-7.5-16.6-16.6v-33.7c0-8.2,5.9-15.1,13.8-16.5l2.8-0.5V56.4c0-8,6.6-14.6,14.6-14.6
		h31.9c8,0,14.6,6.6,14.6,14.6v34.3l2.8,0.4c8.1,1.3,14,8.1,14,16.5L147.2,141.5L147.2,141.5z"/>
	<path class="st4" d="M119.1,62.7c0-5.3-4.3-9.5-9.5-9.5H90.2c-5.3,0-9.5,4.3-9.5,9.5v28.1h38.5L119.1,62.7L119.1,62.7z M87.3,62.7
		c0-1.6,1.3-3,3-3h19.3c1.6,0,3,1.3,3,3v21.5H87.4L87.3,62.7L87.3,62.7z"/>
	<path class="st3" d="M100,108.2L100,108.2c8.8,0.1,15.9,7.2,15.9,16.2s-7.2,16.1-16,16.2h0.1c8.9,0,16.2-7.2,16.2-16.2
		S109,108.2,100,108.2z"/>
	<path class="st3" d="M76.7,124.4c0-12.8,10.3-23.1,23.1-23.2h-0.1c-12.8,0-23.2,10.4-23.2,23.2c0,12.8,10.4,23.2,23.2,23.2h0.1
		C87.2,147.5,76.7,137.1,76.7,124.4z"/>
	<path class="st4" d="M100,101.1L100,101.1c-12.9,0.1-23.3,10.5-23.3,23.3s10.3,23.1,23.1,23.2h0.1c12.8,0,23.2-10.4,23.2-23.2
		S112.8,101.1,100,101.1z M116.2,124.4c0,9-7.3,16.2-16.2,16.2h-0.1c-8.8-0.1-16-7.2-16-16.2s7.1-16.1,16-16.2h0.1
		C109,108.2,116.2,115.3,116.2,124.4z"/>
</g>
</svg>
