<?xml version="1.0" encoding="utf-8"?>
<!-- Generator: Adobe Illustrator 26.0.0, SVG Export Plug-In . SVG Version: 6.00 Build 0)  -->
<svg version="1.1" id="icon" xmlns="http://www.w3.org/2000/svg" xmlns:xlink="http://www.w3.org/1999/xlink" x="0px" y="0px"
	 viewBox="0 0 200 200" style="enable-background:new 0 0 200 200;" xml:space="preserve">
<style type="text/css">
	.st0{fill:#0087BD;}
	.st1{fill:none;stroke:#000000;stroke-width:4;stroke-miterlimit:10;}
	.st2{fill:none;}
	.st3{fill:#FFFFFF;}
	.st4{fill:#010101;}
</style>
<g>
	<g id="XMLID_00000165913907409721026890000012598397923146320812_">
		<g>
			<circle class="st0" cx="100" cy="100" r="90.2"/>
		</g>
		<g>
			<circle class="st1" cx="100" cy="100" r="90.2"/>
		</g>
	</g>
	<ellipse transform="matrix(0.7071 -0.7071 0.7071 0.7071 -41.473 99.9869)" class="st2" cx="100" cy="100.1" rx="29.1" ry="13.7"/>
	<path class="st3" d="M85.6,85.6c9.3-9.3,21.6-13.5,33.7-12.9c-1.7-6-4.9-11.7-9.6-16.4c-14.8-14.8-38.6-14.8-53.4,0
		s-14.8,38.6,0,53.4c4.8,4.8,10.4,7.9,16.4,9.6C72.1,107.2,76.4,94.9,85.6,85.6z"/>
	<path class="st3" d="M114.4,114.4c-9.3,9.3-21.6,13.5-33.7,12.9c1.7,6,4.9,11.7,9.6,16.4c14.8,14.8,38.6,14.8,53.4,0
		c14.8-14.8,14.8-38.6,0-53.4c-4.8-4.8-10.4-7.9-16.4-9.6C127.9,92.8,123.5,105.2,114.4,114.4z"/>
	<path class="st4" d="M148.4,85.6c-6.3-6.3-13.9-10.3-22.1-12c-1.7-8.1-5.7-15.8-12-22.1c-17.3-17.3-45.4-17.3-62.7,0
		s-17.3,45.4,0,62.7c6.3,6.3,14,10.3,22,12c1.7,8.1,5.7,15.8,12,22.1c17.3,17.3,45.5,17.3,62.7,0S165.7,103,148.4,85.6z
		 M109.7,109.8c-8.3,8.3-19.4,11.9-30.2,10.9c-1-10.8,2.6-22,10.9-30.2s19.4-11.9,30.2-10.9C121.6,90.3,118,101.5,109.7,109.8z
		 M56.3,109.8c-14.8-14.8-14.8-38.6,0-53.4s38.6-14.8,53.4,0c4.8,4.8,7.9,10.4,9.6,16.4c-12.1-0.6-24.5,3.7-33.7,12.9
		c-9.3,9.3-13.5,21.6-12.9,33.7C66.7,117.7,61,114.4,56.3,109.8z M143.7,143.8c-14.8,14.8-38.6,14.8-53.4,0
		c-4.8-4.8-7.9-10.4-9.6-16.4c12.2,0.6,24.5-3.7,33.7-12.9s13.5-21.6,12.9-33.7c6,1.7,11.7,4.9,16.4,9.6
		C158.4,105.1,158.4,129,143.7,143.8z"/>
</g>
</svg>
