<?xml version="1.0" encoding="utf-8"?>
<!-- Generator: Adobe Illustrator 26.0.0, SVG Export Plug-In . SVG Version: 6.00 Build 0)  -->
<svg version="1.1" id="图层_1" xmlns="http://www.w3.org/2000/svg" xmlns:xlink="http://www.w3.org/1999/xlink" x="0px" y="0px"
	 viewBox="0 0 146 39" style="enable-background:new 0 0 146 39;" xml:space="preserve">
<style type="text/css">
	.st0{fill:url(#SVGID_1_);}
	.st1{fill:url(#SVGID_00000095337859103355525770000017847400016128102303_);}
	.st2{fill:url(#SVGID_00000138545630455341459110000011089096400897047727_);}
	.st3{fill:url(#SVGID_00000113350211308282652910000012335533990694037131_);}
	.st4{fill:url(#SVGID_00000114043751172305829400000001848203623091107747_);}
	.st5{fill:url(#SVGID_00000180355122934031609740000016508001355599943856_);}
	.st6{fill:url(#SVGID_00000120528337605043825680000012347316752393409456_);}
	.st7{fill:url(#SVGID_00000163062682250739746710000012473052997697323911_);}
	.st8{fill:url(#SVGID_00000085250462493356834540000006925567094121562278_);}
	.st9{fill:url(#SVGID_00000172410428989350058650000017082396468233898167_);}
	.st10{fill:url(#SVGID_00000096752933484057802460000006912064478331643272_);}
	.st11{fill:url(#SVGID_00000131358337618987228780000007923519850092729770_);}
	.st12{fill:url(#SVGID_00000024000532743309998500000016820217499716817810_);}
	.st13{fill:url(#SVGID_00000049212848376271105760000012522020014526538171_);}
	.st14{fill:url(#SVGID_00000108311392743747586530000015023985912191047607_);}
	.st15{fill:url(#SVGID_00000071536790344939505830000015507301657239151751_);}
	.st16{fill:url(#SVGID_00000073698779147285471480000001428869826933835937_);}
</style>
<linearGradient id="SVGID_1_" gradientUnits="userSpaceOnUse" x1="-2.3103" y1="-1.7786" x2="10.5571" y2="12.7811" gradientTransform="matrix(1 0 0 1 0 -1)">
	<stop  offset="0" style="stop-color:#CCE0F4"/>
	<stop  offset="2.000000e-02" style="stop-color:#C3DCF2"/>
	<stop  offset="5.000000e-02" style="stop-color:#A9D2EE"/>
	<stop  offset="9.000000e-02" style="stop-color:#80C2E7"/>
	<stop  offset="0.13" style="stop-color:#47ACDE"/>
	<stop  offset="0.16" style="stop-color:#1E9CD7"/>
	<stop  offset="0.46" style="stop-color:#0075BE"/>
	<stop  offset="0.92" style="stop-color:#005B97"/>
</linearGradient>
<path class="st0" d="M1.8,7h2.6c1.3,0,2.4-1.1,2.4-2.4V2.4C6.9,1.1,5.8,0,4.4,0H1.8c-1,0-1.9,0.8-1.9,1.9v3.3C-0.1,6.2,0.8,7,1.8,7
	L1.8,7z"/>
<linearGradient id="SVGID_00000183247490049598300130000006027142886235584899_" gradientUnits="userSpaceOnUse" x1="22.4195" y1="53.8583" x2="23.4391" y2="-4.2367" gradientTransform="matrix(1 0 0 1 0 -1)">
	<stop  offset="0" style="stop-color:#CCE0F4"/>
	<stop  offset="6.000000e-02" style="stop-color:#C3DCF2"/>
	<stop  offset="0.17" style="stop-color:#A9D2EE"/>
	<stop  offset="0.31" style="stop-color:#80C2E7"/>
	<stop  offset="0.46" style="stop-color:#47ACDE"/>
	<stop  offset="0.57" style="stop-color:#1E9CD7"/>
	<stop  offset="0.87" style="stop-color:#0075BE"/>
	<stop  offset="0.99" style="stop-color:#005B97"/>
</linearGradient>
<path style="fill:url(#SVGID_00000183247490049598300130000006027142886235584899_);" d="M33.4,0H13.3C12,0,11,1,11,2.3v2.4
	c0,1.2,1,2.3,2.3,2.3H26c0.5,0,1,0.4,1,1v8.1c0,0.5-0.4,1-1,1H17c-0.5,0-1,0.4-1,1v3.1c0,1.6,1.3,3,3,3H26c0.5,0,1,0.4,1,1v13.1
	c0,0.5,0.4,1,1,1h5.4c0.9,0,1.6-0.7,1.6-1.6l0,0V1.6C34.9,0.7,34.2,0,33.4,0z"/>
<linearGradient id="SVGID_00000034065049458406112400000016192247979104970646_" gradientUnits="userSpaceOnUse" x1="8.9065" y1="53.6219" x2="9.9255" y2="-4.4451" gradientTransform="matrix(1 0 0 1 0 -1)">
	<stop  offset="0" style="stop-color:#CCE0F4"/>
	<stop  offset="0" style="stop-color:#C9DFF4"/>
	<stop  offset="4.000000e-02" style="stop-color:#A1CFED"/>
	<stop  offset="7.000000e-02" style="stop-color:#7EC2E7"/>
	<stop  offset="0.11" style="stop-color:#60B6E2"/>
	<stop  offset="0.15" style="stop-color:#48ACDE"/>
	<stop  offset="0.2" style="stop-color:#35A5DB"/>
	<stop  offset="0.26" style="stop-color:#28A0D9"/>
	<stop  offset="0.33" style="stop-color:#209DD7"/>
	<stop  offset="0.48" style="stop-color:#1E9CD7"/>
	<stop  offset="0.87" style="stop-color:#0075BE"/>
	<stop  offset="0.99" style="stop-color:#005B97"/>
</linearGradient>
<path style="fill:url(#SVGID_00000034065049458406112400000016192247979104970646_);" d="M17.1,32H7.7c-0.4,0-0.8-0.4-0.8-0.8V12.8
	c0-1.5-1.3-2.8-2.8-2.8H0.7c-0.4,0-0.8,0.4-0.8,0.8v26.4c0,1,0.8,1.8,1.8,1.8h16.4c0.4,0,0.8-0.4,0.8-0.8v-4.4
	C18.9,32.8,18.1,32,17.1,32z"/>
<linearGradient id="SVGID_00000071529447020757288540000003540133338126320298_" gradientUnits="userSpaceOnUse" x1="54.5257" y1="54.1269" x2="55.5402" y2="-3.6858" gradientTransform="matrix(1 0 0 1 0 -1)">
	<stop  offset="0" style="stop-color:#CCE0F4"/>
	<stop  offset="6.000000e-02" style="stop-color:#C3DCF2"/>
	<stop  offset="0.17" style="stop-color:#A9D2EE"/>
	<stop  offset="0.31" style="stop-color:#80C2E7"/>
	<stop  offset="0.46" style="stop-color:#47ACDE"/>
	<stop  offset="0.57" style="stop-color:#1E9CD7"/>
	<stop  offset="0.87" style="stop-color:#0075BE"/>
	<stop  offset="0.99" style="stop-color:#005B97"/>
</linearGradient>
<path style="fill:url(#SVGID_00000071529447020757288540000003540133338126320298_);" d="M42.7,0c-1.5,0-2.8,1.2-2.8,2.8v3
	c0,0.7,0.5,1.2,1.2,1.2h26.6c1.8,0,3.2-1.4,3.2-3.2V1.2c0-0.7-0.5-1.2-1.2-1.2H42.7z"/>
<linearGradient id="SVGID_00000165196389238135173640000013851610429020975750_" gradientUnits="userSpaceOnUse" x1="39.9965" y1="19.2469" x2="47.7256" y2="5.3737" gradientTransform="matrix(1 0 0 1 0 -1)">
	<stop  offset="0" style="stop-color:#CCE0F4"/>
	<stop  offset="1.000000e-02" style="stop-color:#C3DBF2"/>
	<stop  offset="2.000000e-02" style="stop-color:#A9CEEB"/>
	<stop  offset="3.000000e-02" style="stop-color:#80B8E0"/>
	<stop  offset="5.000000e-02" style="stop-color:#469AD1"/>
	<stop  offset="6.000000e-02" style="stop-color:#0075BE"/>
	<stop  offset="0.57" style="stop-color:#1E9CD7"/>
	<stop  offset="0.99" style="stop-color:#005B97"/>
</linearGradient>
<path style="fill:url(#SVGID_00000165196389238135173640000013851610429020975750_);" d="M41.3,9h3.1c1.4,0,2.6,1.2,2.6,2.6v1.8
	c0,1.4-1.2,2.6-2.6,2.6h-1.8c-1.4,0-2.6-1.2-2.6-2.6v-3.1C39.9,9.6,40.5,9,41.3,9z"/>
<linearGradient id="SVGID_00000037682153955076576370000008253291994718284694_" gradientUnits="userSpaceOnUse" x1="54.9639" y1="54.3536" x2="55.9823" y2="-3.6854" gradientTransform="matrix(1 0 0 1 0 -1)">
	<stop  offset="0" style="stop-color:#CCE0F4"/>
	<stop  offset="6.000000e-02" style="stop-color:#C3DCF2"/>
	<stop  offset="0.17" style="stop-color:#A9D2EE"/>
	<stop  offset="0.31" style="stop-color:#80C2E7"/>
	<stop  offset="0.46" style="stop-color:#47ACDE"/>
	<stop  offset="0.57" style="stop-color:#1E9CD7"/>
	<stop  offset="0.87" style="stop-color:#0075BE"/>
	<stop  offset="0.99" style="stop-color:#005B97"/>
</linearGradient>
<path style="fill:url(#SVGID_00000037682153955076576370000008253291994718284694_);" d="M68.3,18H41.8c-1,0-1.9,0.8-1.9,1.9v2.2
	c0,1.6,1.3,2.9,2.9,2.9H62c1,0,1.9,0.8,1.9,1.9v10.2c0,1,0.8,1.9,1.9,1.9H69c1,0,1.9-0.8,1.9-1.9V20.6C70.9,19.2,69.8,18,68.3,18
	L68.3,18z"/>
<linearGradient id="SVGID_00000075154882131842992980000013245026324627181215_" gradientUnits="userSpaceOnUse" x1="50.5356" y1="54.2316" x2="51.5517" y2="-3.6674" gradientTransform="matrix(1 0 0 1 0 -1)">
	<stop  offset="0" style="stop-color:#CCE0F4"/>
	<stop  offset="6.000000e-02" style="stop-color:#C3DCF2"/>
	<stop  offset="0.17" style="stop-color:#A9D2EE"/>
	<stop  offset="0.31" style="stop-color:#80C2E7"/>
	<stop  offset="0.46" style="stop-color:#47ACDE"/>
	<stop  offset="0.57" style="stop-color:#1E9CD7"/>
	<stop  offset="0.87" style="stop-color:#0075BE"/>
	<stop  offset="0.99" style="stop-color:#005B97"/>
</linearGradient>
<path style="fill:url(#SVGID_00000075154882131842992980000013245026324627181215_);" d="M57.6,32H42.1c-0.4,0-0.8,0.4-0.8,0.8v4.4
	c0,1,0.8,1.8,1.8,1.8h16.4c0.4,0,0.8-0.4,0.8-0.8v-3.4C60.3,33.3,59.1,32,57.6,32z"/>
<linearGradient id="SVGID_00000168835412203775604130000012379917857375519409_" gradientUnits="userSpaceOnUse" x1="85.5142" y1="54.4862" x2="86.526" y2="-3.179" gradientTransform="matrix(1 0 0 1 0 -1)">
	<stop  offset="0" style="stop-color:#CCE0F4"/>
	<stop  offset="6.000000e-02" style="stop-color:#C3DCF2"/>
	<stop  offset="0.17" style="stop-color:#A9D2EE"/>
	<stop  offset="0.31" style="stop-color:#80C2E7"/>
	<stop  offset="0.46" style="stop-color:#47ACDE"/>
	<stop  offset="0.57" style="stop-color:#1E9CD7"/>
	<stop  offset="0.87" style="stop-color:#0075BE"/>
	<stop  offset="0.99" style="stop-color:#005B97"/>
</linearGradient>
<path style="fill:url(#SVGID_00000168835412203775604130000012379917857375519409_);" d="M75.9,4.3c0,1.5,1.2,2.7,2.7,2.7h15.6
	c1.5,0,2.7-1.2,2.7-2.7V1.7c0-0.9-0.8-1.7-1.7-1.7H77.6c-0.9,0-1.7,0.8-1.7,1.7V4.3z"/>
<linearGradient id="SVGID_00000117650518970192220850000004313760889725201567_" gradientUnits="userSpaceOnUse" x1="112.4108" y1="-2.718" x2="98.8202" y2="8.1687" gradientTransform="matrix(1 0 0 1 0 -1)">
	<stop  offset="0" style="stop-color:#CCE0F4"/>
	<stop  offset="0" style="stop-color:#C3DBF2"/>
	<stop  offset="0" style="stop-color:#A9CEEB"/>
	<stop  offset="1.000000e-02" style="stop-color:#80B8E0"/>
	<stop  offset="1.000000e-02" style="stop-color:#469AD1"/>
	<stop  offset="1.000000e-02" style="stop-color:#0075BE"/>
	<stop  offset="0.57" style="stop-color:#1E9CD7"/>
	<stop  offset="0.87" style="stop-color:#005B97"/>
</linearGradient>
<path style="fill:url(#SVGID_00000117650518970192220850000004313760889725201567_);" d="M104.7,0h-3.6c-0.7,0-1.2,0.5-1.2,1.2v3.6
	c0,1.2,1,2.2,2.2,2.2h3.6c0.7,0,1.2-0.5,1.2-1.2V2.2C106.9,1,105.9,0,104.7,0z"/>
<linearGradient id="SVGID_00000070799654427067346840000014799723713259322804_" gradientUnits="userSpaceOnUse" x1="90.9008" y1="54.9382" x2="91.9194" y2="-3.0993" gradientTransform="matrix(1 0 0 1 0 -1)">
	<stop  offset="0" style="stop-color:#CCE0F4"/>
	<stop  offset="6.000000e-02" style="stop-color:#C3DCF2"/>
	<stop  offset="0.17" style="stop-color:#A9D2EE"/>
	<stop  offset="0.31" style="stop-color:#80C2E7"/>
	<stop  offset="0.46" style="stop-color:#47ACDE"/>
	<stop  offset="0.57" style="stop-color:#1E9CD7"/>
	<stop  offset="0.87" style="stop-color:#0075BE"/>
	<stop  offset="0.99" style="stop-color:#005B97"/>
</linearGradient>
<path style="fill:url(#SVGID_00000070799654427067346840000014799723713259322804_);" d="M92.8,11H90c-1.2,0-2.1,1-2.1,2.1v24.7
	c0,0.6,0.5,1.1,1.1,1.1h4.7c0.6,0,1.1-0.5,1.1-1.1V13.1C94.9,12,93.9,11,92.8,11z"/>
<linearGradient id="SVGID_00000103954777624364181620000014492503559428564371_" gradientUnits="userSpaceOnUse" x1="103.0291" y1="55.1273" x2="104.0458" y2="-2.8143" gradientTransform="matrix(1 0 0 1 0 -1)">
	<stop  offset="0" style="stop-color:#CCE0F4"/>
	<stop  offset="6.000000e-02" style="stop-color:#C3DCF2"/>
	<stop  offset="0.17" style="stop-color:#A9D2EE"/>
	<stop  offset="0.31" style="stop-color:#80C2E7"/>
	<stop  offset="0.46" style="stop-color:#47ACDE"/>
	<stop  offset="0.57" style="stop-color:#1E9CD7"/>
	<stop  offset="0.87" style="stop-color:#0075BE"/>
	<stop  offset="0.99" style="stop-color:#005B97"/>
</linearGradient>
<path style="fill:url(#SVGID_00000103954777624364181620000014492503559428564371_);" d="M99.9,28.3v9.4c0,0.7,0.6,1.3,1.3,1.3h4.4
	c0.7,0,1.3-0.6,1.3-1.3V26.3c0-0.7-0.6-1.3-1.3-1.3h-2.4C101.4,25,99.9,26.5,99.9,28.3z"/>
<linearGradient id="SVGID_00000155863988038258274160000014515624804943070377_" gradientUnits="userSpaceOnUse" x1="78.9483" y1="54.7351" x2="79.967" y2="-3.3077" gradientTransform="matrix(1 0 0 1 0 -1)">
	<stop  offset="0" style="stop-color:#CCE0F4"/>
	<stop  offset="6.000000e-02" style="stop-color:#C3DCF2"/>
	<stop  offset="0.17" style="stop-color:#A9D2EE"/>
	<stop  offset="0.31" style="stop-color:#80C2E7"/>
	<stop  offset="0.46" style="stop-color:#47ACDE"/>
	<stop  offset="0.57" style="stop-color:#1E9CD7"/>
	<stop  offset="0.87" style="stop-color:#0075BE"/>
	<stop  offset="0.99" style="stop-color:#005B97"/>
</linearGradient>
<path style="fill:url(#SVGID_00000155863988038258274160000014515624804943070377_);" d="M80.1,17h-3.3c-0.5,0-0.8,0.4-0.8,0.8v20.3
	c0,0.5,0.4,0.8,0.8,0.8h5.3c0.5,0,0.8-0.4,0.8-0.8V19.8C82.9,18.3,81.6,17,80.1,17z"/>
<linearGradient id="SVGID_00000157275514379706620200000001229356084260432522_" gradientUnits="userSpaceOnUse" x1="114.8684" y1="55.2968" x2="115.8866" y2="-2.7209" gradientTransform="matrix(1 0 0 1 0 -1)">
	<stop  offset="0" style="stop-color:#CCE0F4"/>
	<stop  offset="6.000000e-02" style="stop-color:#C3DCF2"/>
	<stop  offset="0.17" style="stop-color:#A9D2EE"/>
	<stop  offset="0.31" style="stop-color:#80C2E7"/>
	<stop  offset="0.46" style="stop-color:#47ACDE"/>
	<stop  offset="0.57" style="stop-color:#1E9CD7"/>
	<stop  offset="0.87" style="stop-color:#0075BE"/>
	<stop  offset="0.99" style="stop-color:#005B97"/>
</linearGradient>
<path style="fill:url(#SVGID_00000157275514379706620200000001229356084260432522_);" d="M116.4,10h-3.1c-0.8,0-1.5,0.7-1.5,1.5
	v26.1c0,0.8,0.7,1.5,1.5,1.5h3.1c1.4,0,2.5-1.1,2.5-2.5V12.5C118.9,11.1,117.8,10,116.4,10z"/>
<linearGradient id="SVGID_00000102525493832305438660000000233162470830099073_" gradientUnits="userSpaceOnUse" x1="138.0632" y1="55.6962" x2="139.0813" y2="-2.3298" gradientTransform="matrix(1 0 0 1 0 -1)">
	<stop  offset="0" style="stop-color:#CCE0F4"/>
	<stop  offset="6.000000e-02" style="stop-color:#C3DCF2"/>
	<stop  offset="0.17" style="stop-color:#A9D2EE"/>
	<stop  offset="0.31" style="stop-color:#80C2E7"/>
	<stop  offset="0.46" style="stop-color:#47ACDE"/>
	<stop  offset="0.57" style="stop-color:#1E9CD7"/>
	<stop  offset="0.87" style="stop-color:#0075BE"/>
	<stop  offset="0.99" style="stop-color:#005B97"/>
</linearGradient>
<path style="fill:url(#SVGID_00000102525493832305438660000000233162470830099073_);" d="M142.9,0h-2c-1.1,0-2,0.9-2,2v28
	c0,1.1-0.9,2-2,2h-4c-1.1,0-2,0.9-2,2v2c0,1.7,1.3,3,3,3h10c1.1,0,2-0.9,2-2V3C145.9,1.3,144.6,0,142.9,0z"/>
<linearGradient id="SVGID_00000078740318271948527260000016149626025314403995_" gradientUnits="userSpaceOnUse" x1="122.0042" y1="55.0583" x2="123.0257" y2="-2.5918" gradientTransform="matrix(1 0 0 1 0 -1)">
	<stop  offset="0" style="stop-color:#CCE0F4"/>
	<stop  offset="6.000000e-02" style="stop-color:#C3DCF2"/>
	<stop  offset="0.17" style="stop-color:#A9D2EE"/>
	<stop  offset="0.31" style="stop-color:#80C2E7"/>
	<stop  offset="0.46" style="stop-color:#47ACDE"/>
	<stop  offset="0.57" style="stop-color:#1E9CD7"/>
	<stop  offset="0.87" style="stop-color:#0075BE"/>
	<stop  offset="0.99" style="stop-color:#005B97"/>
</linearGradient>
<path style="fill:url(#SVGID_00000078740318271948527260000016149626025314403995_);" d="M133.9,4.3V1.7c0-1-0.8-1.7-1.7-1.7h-17.5
	c-1.5,0-2.7,1.2-2.7,2.7v2.5c0,1,0.8,1.7,1.7,1.7h17.5C132.7,7,133.9,5.8,133.9,4.3z"/>
<linearGradient id="SVGID_00000053516841657095626350000006039596048449380031_" gradientUnits="userSpaceOnUse" x1="137.571" y1="26.2834" x2="87.8382" y2="27.6864" gradientTransform="matrix(1 0 0 1 0 -1)">
	<stop  offset="0" style="stop-color:#CCE0F4"/>
	<stop  offset="1.000000e-02" style="stop-color:#C3DCF2"/>
	<stop  offset="2.000000e-02" style="stop-color:#A9D2EE"/>
	<stop  offset="4.000000e-02" style="stop-color:#80C2E7"/>
	<stop  offset="6.000000e-02" style="stop-color:#47ACDE"/>
	<stop  offset="7.000000e-02" style="stop-color:#1E9CD7"/>
	<stop  offset="0.34" style="stop-color:#0075BE"/>
	<stop  offset="0.99" style="stop-color:#005B97"/>
</linearGradient>
<path style="fill:url(#SVGID_00000053516841657095626350000006039596048449380031_);" d="M134.9,27v-3c0-1.1-0.9-2-2-2h-6
	c-1.6,0-3,1.3-3,3v1c0,1.6,1.3,3,3,3h6C134,29,134.9,28.1,134.9,27z"/>
<linearGradient id="SVGID_00000170276190159708071440000003185353942491781292_" gradientUnits="userSpaceOnUse" x1="121.0737" y1="15.6861" x2="141.9117" y2="15.1186" gradientTransform="matrix(1 0 0 1 0 -1)">
	<stop  offset="0" style="stop-color:#CCE0F4"/>
	<stop  offset="0" style="stop-color:#C3DBF2"/>
	<stop  offset="1.000000e-02" style="stop-color:#A9CEEB"/>
	<stop  offset="1.000000e-02" style="stop-color:#80B8E0"/>
	<stop  offset="2.000000e-02" style="stop-color:#469AD1"/>
	<stop  offset="2.000000e-02" style="stop-color:#0075BE"/>
	<stop  offset="0.57" style="stop-color:#1E9CD7"/>
	<stop  offset="0.96" style="stop-color:#005B97"/>
</linearGradient>
<path style="fill:url(#SVGID_00000170276190159708071440000003185353942491781292_);" d="M131,18c1.6,0,2.9-1.3,2.9-2.9v-1.2
	c0-1.6-1.3-2.9-2.9-2.9h-6.2c-1.1,0-1.9,0.9-1.9,1.9v3.2c0,1.1,0.9,1.9,1.9,1.9H131z"/>
</svg>
