<?xml version="1.0" encoding="utf-8"?>
<!-- Generator: Adobe Illustrator 26.0.0, SVG Export Plug-In . SVG Version: 6.00 Build 0)  -->
<svg version="1.1" id="icon" xmlns="http://www.w3.org/2000/svg" xmlns:xlink="http://www.w3.org/1999/xlink" x="0px" y="0px"
	 viewBox="0 0 200 200" style="enable-background:new 0 0 200 200;" xml:space="preserve">
<style type="text/css">
	.st0{fill:#0087BD;}
	.st1{fill:none;stroke:#000000;stroke-width:4;stroke-miterlimit:10;}
	.st2{fill:#FFFFFF;}
	.st3{fill:#010101;}
</style>
<g id="XMLID_00000088110949265508576820000018025937570998821304_">
	<g>
		<circle class="st0" cx="100" cy="100" r="89.9"/>
	</g>
	<g>
		<circle class="st1" cx="100" cy="100" r="89.9"/>
	</g>
</g>
<g>
	<path class="st2" d="M93.4,107.9c0,0-2.7-2.9-3.1-7.2c-0.5-5.8,5.4-12.7,15-16.4c-0.5,2.1-1,5.1,0.4,8.2c1.2,2.8,2.9,3.1,4.1,6.1
		c0.4,1.1,1.9,4.8,0,8.2c-1.8,3.2-5.5,4-6.1,4.1v7.4c8.7,0.1,21.7-0.7,35.9-7.4c7.7-3.7,13.6-7.9,17.5-11.2
		c-3.7-3.2-9.1-7.5-16.4-11.2c-3.7-1.9-20.4-10.3-43-9.3c-27.2,1.3-45.9,15.2-52.3,20.5c8.9,6.1,27.7,17.2,53.3,18.4v-7.2
		C97.3,110.6,95.2,109.8,93.4,107.9z"/>
	<path class="st3" d="M140.5,81.1c-21.5-10.3-41-8.9-49.2-8.2C64,75.3,44.7,88.2,36.5,94.5c-0.3,0.2-2.6,2-2.6,5.1
		c0,3.2,2.3,5,2.6,5.1c11.3,9,22,13.8,29.2,16.4c7,2.5,46.2,15.8,81-5.1c9.2-5.5,15.6-11.9,19.4-16.4
		C161.1,94.4,152.6,87,140.5,81.1z M139.5,110.9c-14.1,6.7-27.2,7.5-35.9,7.4v-7.4c0.7-0.1,4.3-0.9,6.1-4.1c1.9-3.4,0.5-7.1,0-8.2
		c-1.3-3.1-2.9-3.3-4.1-6.1c-1.3-3.1-0.9-6.2-0.4-8.2c-9.4,3.7-15.4,10.5-14.8,16.4c0.4,4.3,3.1,7.2,3.1,7.2c1.9,2,4,2.8,5.1,3.1
		v7.2c-25.6-1.3-44.4-12.3-53.3-18.4c6.4-5.3,25-19.3,52.3-20.5c22.7-1,39.4,7.3,43,9.3c7.3,3.8,12.7,8,16.4,11.2
		C153.1,102.9,147.2,107.2,139.5,110.9z"/>
</g>
</svg>
